<?xml version="1.0" standalone="no"?>
<!DOCTYPE svg PUBLIC "-//W3C//DTD SVG 1.1//EN" "http://www.w3.org/Graphics/SVG/1.1/DTD/svg11.dtd" >
<svg xmlns="http://www.w3.org/2000/svg">
<metadata></metadata>
<defs>
<font id="segoe_uisegoe_ui" horiz-adv-x="1103" >
<font-face units-per-em="2048" ascent="1638" descent="-410" />
<missing-glyph horiz-adv-x="559" />
<glyph horiz-adv-x="0" />
<glyph unicode="&#xd;" horiz-adv-x="198" />
<glyph unicode=" "  horiz-adv-x="559" />
<glyph unicode="&#x09;" horiz-adv-x="559" />
<glyph unicode="&#xa0;" horiz-adv-x="559" />
<glyph unicode="!" horiz-adv-x="581" d="M178 236q0 45 33 77.5t78 32.5t77.5 -32.5t32.5 -77.5q0 -47 -32.5 -79t-77.5 -32t-78 31.5t-33 79.5zM201 1577h172l-19 -1030h-135z" />
<glyph unicode="&#x22;" horiz-adv-x="770" d="M176 1577h135l-10 -447h-115zM459 1577h135l-10 -447h-117z" />
<glyph unicode="#" horiz-adv-x="1208" d="M33 664l20 106h264l62 299h-277l21 107h276l84 401h127l-84 -401h252l86 401h123l-84 -401h262l-22 -107h-260l-64 -299h281l-27 -106h-274l-88 -398h-127l86 398h-250l-84 -398h-125l84 398h-262zM440 770h254l64 299h-252z" />
<glyph unicode="$" d="M162 1202q0 145 99 251t251 126v180h104v-176q195 -6 271 -55v-170q-102 80 -271 86v-529q207 -98 284 -191t77 -210q0 -143 -95.5 -239t-265.5 -123v-218h-104v209q-213 0 -346 86v174q57 -51 158.5 -85.5t187.5 -34.5v512q-219 106 -284.5 196t-65.5 211zM330 1223 q0 -86 40 -140.5t142 -111.5v467q-84 -16 -133 -74.5t-49 -140.5zM616 291q193 43 193 209q0 137 -193 243v-452z" />
<glyph unicode="%" horiz-adv-x="1675" d="M80 1217q0 178 93 280t251 102q154 0 237.5 -95t83.5 -267t-94 -275.5t-248 -103.5q-147 0 -235 97.5t-88 261.5zM213 1225q0 -121 54.5 -188.5t146.5 -67.5q94 0 147 70.5t53 193.5q0 121 -52 188.5t-144 67.5q-94 0 -149.5 -70.5t-55.5 -193.5zM301 133l920 1444h143 l-920 -1444h-143zM934 479q0 178 94 281.5t250 103.5q152 0 236.5 -96t84.5 -268t-94 -275.5t-248 -103.5q-147 0 -235 98t-88 260zM1067 487q0 -119 54.5 -186.5t146.5 -67.5q94 0 147 71t53 194q0 121 -52 187.5t-144 66.5q-96 0 -150.5 -70t-54.5 -195z" />
<glyph unicode="&#x26;" horiz-adv-x="1445" d="M119 506q0 252 327 420q-156 199 -155 338q0 145 106.5 241.5t270.5 96.5q156 0 249 -85t93 -214q0 -127 -69 -216.5t-255 -183.5q207 -217 375 -383q111 162 115 381h151q-2 -272 -172 -485q41 -42 270 -273h-229l-154 158q-195 -182 -469 -182q-213 0 -333.5 109.5 t-120.5 277.5zM287 512q0 -113 81 -183.5t205 -70.5q221 0 375 141q-139 141 -409 426q-252 -123 -252 -313zM455 1264q0 -109 141 -267q254 123 254 291q0 78 -52.5 130t-125.5 52q-100 0 -158.5 -58t-58.5 -148z" />
<glyph unicode="'" horiz-adv-x="468" d="M168 1577h135l-10 -447h-115z" />
<glyph unicode="(" horiz-adv-x="616" d="M139 690q0 520 312 887h147q-313 -379 -313 -885q0 -501 311 -874h-145q-311 354 -312 872z" />
<glyph unicode=")" horiz-adv-x="616" d="M20 1577h148q311 -367 311 -887q0 -518 -311 -872h-145q311 373 311 874q0 506 -314 885z" />
<glyph unicode="*" horiz-adv-x="851" d="M76 1247l45 125l262 -98l-23 303h138l-23 -303l262 98l43 -125l-274 -55l190 -244l-110 -76l-156 265l-158 -265l-110 76l190 244z" />
<glyph unicode="+" horiz-adv-x="1400" d="M231 674v133h404v403h133v-403h403v-133h-403v-404h-133v404h-404z" />
<glyph unicode="," horiz-adv-x="442" d="M39 -119l117 490h159l-159 -490h-117z" />
<glyph unicode="-" horiz-adv-x="817" d="M143 649v129h547v-129h-547z" />
<glyph unicode="." horiz-adv-x="442" d="M111 233q0 45 31.5 79t78.5 34t80 -33.5t33 -79.5q0 -47 -33 -79.5t-80 -32.5t-78.5 32.5t-31.5 79.5z" />
<glyph unicode="/" horiz-adv-x="796" d="M-27 -94l684 1671h156l-688 -1671h-152z" />
<glyph unicode="0" d="M84 831q0 379 125 575t358 196q451 0 451 -736q0 -365 -127 -556t-354 -191q-213 0 -333 183t-120 529zM252 840q0 -582 301 -582q297 0 297 592q0 612 -291 612q-307 0 -307 -622z" />
<glyph unicode="1" d="M168 1303v155l496 152v-1323h323v-144h-811v144h324v1114z" />
<glyph unicode="2" d="M94 143v146l418 420q160 160 228.5 266t68.5 227q0 125 -70.5 192.5t-201.5 67.5q-193 0 -369 -164v172q168 131 391 132q193 0 302.5 -104.5t109.5 -278.5q0 -137 -76 -269.5t-272 -326.5l-332 -328v-4h667v-148h-864z" />
<glyph unicode="3" d="M129 197v176q147 -115 332 -115q150 0 240 75t90 202q0 281 -400 280h-119v139h113q354 0 354 265q0 244 -270 243q-152 0 -285 -102v160q137 82 326 82q180 0 288.5 -96.5t108.5 -245.5q0 -283 -286 -365v-4q154 -14 245.5 -107.5t91.5 -234.5q0 -193 -139 -311.5 t-364 -118.5q-205 0 -326 78z" />
<glyph unicode="4" d="M12 524v107l637 946h199v-920h184v-133h-184v-381h-162v381h-674zM190 657h496v621q0 66 4 147h-4q-14 -37 -55 -110z" />
<glyph unicode="5" d="M164 178v174q147 -94 299 -94t245 86t93 227t-95.5 220t-271.5 79q-59 0 -225 -12v719h694v-147h-538v-420q66 4 120 4q231 0 357.5 -116t126.5 -316q0 -209 -136.5 -336t-371.5 -127q-199 0 -297 59z" />
<glyph unicode="6" d="M109 774q0 377 160.5 602.5t424.5 225.5q150 0 238 -41v-156q-111 57 -234 57q-190 0 -304.5 -170t-114.5 -454h4q100 203 327 202q188 0 299 -120.5t111 -321.5q0 -211 -127 -345t-324 -134q-215 0 -337.5 172t-122.5 483zM289 612q0 -147 78.5 -250.5t207.5 -103.5 q125 0 201 90t76 230q0 152 -73 237.5t-206 85.5q-127 0 -205.5 -86t-78.5 -203z" />
<glyph unicode="7" d="M84 1430v147h924v-51l-568 -1383h-170l537 1287h-723z" />
<glyph unicode="8" d="M98 494q1 276 310 401v4q-258 121 -258 348q0 156 117.5 255.5t303.5 99.5q168 0 276.5 -93.5t108.5 -238.5q0 -238 -266 -371v-4q313 -111 314 -387q0 -178 -128 -283.5t-356 -105.5q-184 0 -303 104.5t-119 270.5zM266 502q0 -106 79 -175t210 -69q125 0 203 67.5 t78 170.5q0 215 -295 321q-274 -109 -275 -315zM317 1251q0 -186 234 -282q237 98 237 280q0 98 -62 155.5t-169 57.5q-100 0 -170 -59.5t-70 -151.5z" />
<glyph unicode="9" d="M92 1122q0 211 129 345.5t332 134.5q213 0 330.5 -168t117.5 -488q0 -397 -153.5 -612t-427.5 -215q-144 0 -250 49v158q121 -68 254 -68q195 0 303.5 156.5t108.5 445.5h-5q-92 -184 -319 -184q-184 0 -302 125t-118 321zM260 1145q0 -150 78 -237t211 -87 q117 0 196.5 79t79.5 194q0 162 -79.5 265t-206.5 103q-119 0 -199 -89t-80 -228z" />
<glyph unicode=":" horiz-adv-x="442" d="M111 233q0 45 31.5 79t78.5 34t80 -33.5t33 -79.5q0 -47 -33 -79.5t-80 -32.5t-78.5 32.5t-31.5 79.5zM111 1079q0 45 31.5 78t78.5 33t80 -33t33 -78t-33 -78.5t-80 -33.5t-78.5 33.5t-31.5 78.5z" />
<glyph unicode=";" horiz-adv-x="442" d="M39 -119l117 490h159l-159 -490h-117zM115 1079q0 45 31.5 78t78.5 33t80 -33t33 -78t-33 -78.5t-80 -33.5t-78.5 33.5t-31.5 78.5z" />
<glyph unicode="&#x3c;" horiz-adv-x="1400" d="M270 702v60l860 481v-149l-643 -357v-4l643 -313v-150z" />
<glyph unicode="=" horiz-adv-x="1400" d="M231 461v133h940v-133h-940zM231 887v133h940v-133h-940z" />
<glyph unicode="&#x3e;" horiz-adv-x="1400" d="M270 270v150l643 311v6l-643 357v149l860 -481v-60z" />
<glyph unicode="?" horiz-adv-x="917" d="M129 1329v176q154 96 317 97q168 0 268.5 -95.5t100.5 -249.5q0 -207 -207 -380q-102 -88 -124.5 -139.5t-22.5 -116.5v-74h-152v78q0 96 35 166.5t133 150.5q176 143 176 301q0 96 -62.5 157.5t-168.5 61.5q-168 0 -293 -133zM274 236q0 45 33 77.5t78 32.5t78 -32.5 t33 -77.5q0 -47 -33 -79t-78 -32t-78 31.5t-33 79.5z" />
<glyph unicode="@" horiz-adv-x="1955" d="M170 750q0 367 233.5 607t595.5 240q340 0 563.5 -201.5t223.5 -527.5q0 -238 -118 -390t-286 -152q-219 -1 -221 237h-4q-74 -238 -287 -237q-137 0 -221 101t-84 271q0 225 116 375t304 150q72 0 128 -37t73 -92h4q2 29 10 114h125q-47 -551 -47 -561q0 -207 119 -207 q109 0 180.5 117t71.5 303q0 274 -174.5 448.5t-483.5 174.5q-297 0 -490.5 -208t-193.5 -519q0 -307 184.5 -495.5t497.5 -188.5q246 0 422 82v-125q-174 -72 -432 -72q-365 0 -587 219t-222 574zM707 696q0 -119 51 -186.5t137 -67.5q125 0 196.5 124t71.5 327 q0 215 -180 215q-125 0 -200.5 -119t-75.5 -293z" />
<glyph unicode="A" horiz-adv-x="1320" d="M20 143l549 1434h174l553 -1434h-186l-152 402h-608l-143 -402h-187zM406 696h497l-225 611q-10 31 -23 96h-4q-10 -61 -22 -96z" />
<glyph unicode="B" horiz-adv-x="1173" d="M186 143v1434h408q186 0 294.5 -91t108.5 -237q0 -123 -65.5 -212t-181.5 -128v-4q145 -16 232 -109.5t87 -240.5q0 -184 -132 -298t-333 -114h-418zM354 295h228q147 0 229 70.5t82 191.5q0 254 -346 254h-193v-516zM354 963h172q137 0 216 66.5t79 187.5 q0 208 -271 208h-3h-193v-462z" />
<glyph unicode="C" horiz-adv-x="1267" d="M92 834q0 344 207 556t524 212q205 0 338 -60v-178q-154 86 -340 86q-246 0 -399.5 -165t-153.5 -441q0 -262 143.5 -418t376.5 -156q215 0 373 97v-164q-158 -84 -395 -84q-305 0 -489.5 197.5t-184.5 517.5z" />
<glyph unicode="D" horiz-adv-x="1435" d="M186 143v1434h396q757 0 757 -696q0 -334 -209.5 -536t-564.5 -202h-379zM354 295h213q283 0 439.5 151.5t156.5 427.5q0 551 -585 551h-224v-1130z" />
<glyph unicode="E" horiz-adv-x="1034" d="M186 143v1434h727v-152h-559v-477h518v-151h-518v-502h592v-152h-760z" />
<glyph unicode="F" horiz-adv-x="999" d="M186 143v1434h727v-152h-559v-495h518v-152h-518v-635h-168z" />
<glyph unicode="G" horiz-adv-x="1404" d="M92 842q0 332 210 546t534 214q233 0 393 -76v-187q-174 111 -412 111q-242 0 -395.5 -166t-153.5 -430q0 -272 142.5 -428t388.5 -156q168 0 291 68v401h-314v152h481v-649q-215 -123 -479 -123q-307 0 -496.5 198.5t-189.5 524.5z" />
<glyph unicode="H" horiz-adv-x="1452" d="M186 143v1434h168v-629h742v629h168v-1434h-168v654h-742v-654h-168z" />
<glyph unicode="I" horiz-adv-x="544" d="M186 143v1434h168v-1434h-168z" />
<glyph unicode="J" horiz-adv-x="729" d="M18 143v166q53 -39 140 -39q227 0 227 385v922h168v-920q0 -256 -107.5 -397t-289.5 -141q-84 0 -138 24z" />
<glyph unicode="K" horiz-adv-x="1187" d="M186 143v1434h168v-674h4q14 23 37 49l537 625h209l-615 -688l658 -746h-234l-555 656q-31 37 -37 51h-4v-707h-168z" />
<glyph unicode="L" horiz-adv-x="962" d="M186 143v1434h168v-1282h576v-152h-744z" />
<glyph unicode="M" horiz-adv-x="1837" d="M186 143v1434h222l440 -999q51 -115 65 -172h7q43 119 69 176l449 995h211v-1434h-168v963q0 113 14 278h-4q-25 -96 -43 -139l-490 -1102h-81l-490 1094q-20 49 -43 147h-4q8 -86 8 -280v-961h-162z" />
<glyph unicode="N" horiz-adv-x="1531" d="M186 143v1434h217l719 -1124q45 -70 58 -97h4q-10 61 -10 211v1010h167v-1434h-204l-740 1143q-27 43 -45 90h-6q8 -45 8 -196v-1037h-168z" />
<glyph unicode="O" horiz-adv-x="1542" d="M92 844q0 346 187.5 552t508.5 206q297 0 478.5 -200t181.5 -523q0 -350 -186.5 -555t-497.5 -205q-305 0 -488.5 201.5t-183.5 523.5zM268 858q0 -264 137.5 -426t358.5 -162q236 0 372 154t136 432q0 283 -132.5 438.5t-363.5 155.5q-225 0 -366.5 -163t-141.5 -429z " />
<glyph unicode="P" horiz-adv-x="1146" d="M186 143v1434h394q229 0 356 -111.5t127 -316.5q0 -203 -140.5 -333t-379.5 -130h-189v-543h-168zM354 838h176q174 0 265.5 79.5t91.5 223.5q0 284 -334 284h-2h-197v-587z" />
<glyph unicode="Q" horiz-adv-x="1542" d="M92 844q0 346 186.5 552t514.5 206q291 0 473 -200t182 -523q0 -297 -134 -492t-380 -248l334 -346h-232l-282 326q-295 2 -478.5 201.5t-183.5 523.5zM268 858q0 -264 137.5 -426t358.5 -162q236 0 372 154t136 432q0 283 -132.5 438.5t-363.5 155.5q-225 0 -366.5 -163 t-141.5 -429z" />
<glyph unicode="R" horiz-adv-x="1177" d="M186 143v1434h428q205 0 321 -102.5t116 -278.5q0 -154 -86 -258t-234 -139v-4q80 -29 148 -170l229 -482h-201l-188 432q-78 178 -219 179h-146v-611h-168zM354 905h221q135 0 217 77t82 200q0 115 -75.5 179t-214.5 64h-230v-520z" />
<glyph unicode="S" horiz-adv-x="1017" d="M121 201v198q63 -57 161.5 -93t184.5 -36q276 0 276 215q0 84 -55 149.5t-246 174.5q-172 98 -245.5 189.5t-73.5 220.5q0 168 125 275.5t330 107.5q193 0 282 -52v-188q-115 88 -291 88q-125 0 -197.5 -60.5t-72.5 -156.5q0 -78 43 -141.5t236 -169.5 q186 -104 264 -200.5t78 -215.5q0 -178 -124 -282.5t-352 -104.5q-80 0 -178 24.5t-145 57.5z" />
<glyph unicode="T" horiz-adv-x="1071" d="M41 1425v152h995v-152h-413v-1282h-168v1282h-414z" />
<glyph unicode="U" horiz-adv-x="1406" d="M170 700v877h168v-866q0 -440 373 -441q358 0 358 426v881h168v-854q0 -604 -545 -604q-522 0 -522 581z" />
<glyph unicode="V" horiz-adv-x="1271" d="M16 1577h187l397 -1137q18 -55 29 -127h4q8 59 33 129l405 1135h180l-530 -1434h-184z" />
<glyph unicode="W" horiz-adv-x="1912" d="M25 1577h184l305 -1100q18 -70 25 -143h4q6 53 30 143l318 1100h162l303 -1108q16 -57 24 -133h4q4 51 27 137l293 1104h182l-405 -1434h-197l-295 1049q-18 66 -22 145h-4q-6 -74 -27 -143l-297 -1051h-195z" />
<glyph unicode="X" horiz-adv-x="1206" d="M25 143l479 721l-443 713h207l293 -504q29 -49 51 -100h4q31 68 56 104l305 500h192l-450 -711l457 -723h-205l-330 549q-14 25 -33 72h-4q-10 -23 -35 -72l-340 -549h-204z" />
<glyph unicode="Y" horiz-adv-x="1130" d="M16 1577h191l321 -647q6 -12 35 -88h2q10 33 39 88l336 647h178l-473 -903v-531h-168v527z" />
<glyph unicode="Z" horiz-adv-x="1167" d="M33 143v47l833 1235h-766v152h1024v-39l-839 -1243h819v-152h-1071z" />
<glyph unicode="[" horiz-adv-x="616" d="M199 -182v1759h366v-119h-221v-1521h221v-119h-366z" />
<glyph unicode="\" horiz-adv-x="774" d="M-25 1577h154l670 -1673h-152z" />
<glyph unicode="]" horiz-adv-x="616" d="M51 -63h221v1521h-221v119h367v-1759h-367v119z" />
<glyph unicode="^" horiz-adv-x="1400" d="M229 768l422 834h66l457 -834h-150l-332 618h-6l-309 -618h-148z" />
<glyph unicode="_" horiz-adv-x="849" d="M0 -33h850v-121h-850v121z" />
<glyph unicode="`" horiz-adv-x="548" d="M82 1690h168l221 -328h-127z" />
<glyph unicode="a" horiz-adv-x="1040" d="M88 416q0 287 338 334l307 43q0 260 -211 260q-184 0 -334 -125v168q152 96 349 96q360 0 360 -383v-666h-164v160h-4q-106 -184 -315 -184q-154 0 -240 81t-86 216zM256 428q0 -76 53 -123t144 -47q121 0 200.5 85t79.5 216v103l-248 -35q-113 -14 -171 -55.5 t-58 -143.5z" />
<glyph unicode="b" horiz-adv-x="1202" d="M166 143v1516h164v-672h4q121 205 354 205q197 0 308.5 -138.5t111.5 -367.5q0 -258 -125 -412.5t-342 -154.5q-203 0 -307 172h-4v-148h-164zM330 561q0 -127 83 -215t210 -88q147 0 232 113.5t85 316.5q0 172 -79 268.5t-214 96.5q-143 0 -230 -99t-87 -249v-144z" />
<glyph unicode="c" horiz-adv-x="944" d="M94 631q0 254 144.5 407.5t388.5 153.5q135 0 237 -51v-168q-115 80 -243 80q-158 0 -258.5 -113t-100.5 -295q0 -180 94.5 -283.5t253.5 -103.5q133 0 252 88v-156q-117 -71 -276 -71h-4q-219 0 -353.5 142t-134.5 370z" />
<glyph unicode="d" horiz-adv-x="1204" d="M94 631q0 254 128 407.5t341 153.5q211 0 307 -166h4v633h164v-1516h-164v174h-4q-114 -198 -350 -198h-2q-193 0 -308.5 138t-115.5 374zM262 639q0 -176 82 -278.5t221 -102.5q137 0 223 98t86 250v152q0 123 -81.5 209t-208.5 86q-150 0 -236 -109.5t-86 -304.5z" />
<glyph unicode="e" horiz-adv-x="1069" d="M94 651q0 240 135.5 390.5t335.5 150.5q201 0 311.5 -130t110.5 -362v-86h-723q4 -172 92 -264t242 -92q172 0 317 113v-154q-135 -98 -356 -98q-217 0 -341 140t-124 392zM266 754h553q-2 141 -69.5 220t-186.5 79q-117 0 -197.5 -83t-99.5 -216z" />
<glyph unicode="f" horiz-adv-x="638" d="M51 1028v139h174v166q0 162 93.5 255t232.5 93q76 0 119 -18v-147q-45 26 -105 26h-4q-172 0 -172 -217v-158h240v-139h-240v-885h-164v885h-174z" />
<glyph unicode="g" horiz-adv-x="1204" d="M94 623q0 260 125 414.5t344 154.5q207 0 307 -166h4v141h164v-942q0 -563 -540 -563q-190 0 -332 72v164q174 -94 330 -95q379 0 378 400v112h-4q-116 -196 -350 -196h-2q-190 0 -307 137t-117 367zM262 633q0 -170 82 -272.5t219 -102.5t224 97t87 251v152 q0 121 -82.5 208t-205.5 87q-152 0 -238 -111t-86 -309z" />
<glyph unicode="h" horiz-adv-x="1157" d="M166 143v1516h164v-662h4q119 195 336 195q346 0 346 -418v-631h-164v590q0 319 -238 320q-121 0 -202.5 -92.5t-81.5 -237.5v-580h-164z" />
<glyph unicode="i" horiz-adv-x="495" d="M143 1534q0 45 32 75.5t75 30.5q45 0 76.5 -30.5t31.5 -75.5t-31.5 -76t-76.5 -31q-43 0 -75 30t-32 77zM166 143v1024h164v-1024h-164z" />
<glyph unicode="j" horiz-adv-x="495" d="M-197 -154q74 -43 140 -43q223 0 223 357v1007h164v-981q0 -252 -101.5 -388t-289.5 -136q-70 0 -136 33v151zM143 1534q0 45 32 75.5t75 30.5q45 0 76.5 -30.5t31.5 -75.5t-31.5 -76t-76.5 -31q-43 0 -75 30t-32 77z" />
<glyph unicode="k" horiz-adv-x="1017" d="M166 143v1516h164v-961h4l430 469h215l-475 -493l512 -531h-230l-452 492h-4v-492h-164z" />
<glyph unicode="l" horiz-adv-x="495" d="M166 143v1516h164v-1516h-164z" />
<glyph unicode="m" horiz-adv-x="1763" d="M166 143v1024h164v-161h4q109 186 317 186q106 0 184 -58.5t107 -154.5q115 213 340 213q338 0 338 -418v-631h-164v588q0 170 -52 246t-177 76q-104 0 -178 -95.5t-74 -230.5v-584h-164v609q0 301 -233 301q-109 0 -178.5 -90.5t-69.5 -235.5v-584h-164z" />
<glyph unicode="n" horiz-adv-x="1157" d="M166 143v1024h164v-170h4q117 195 336 195q168 0 257 -108.5t89 -313.5v-627h-164v584q0 326 -238 326q-123 0 -203.5 -92.5t-80.5 -233.5v-584h-164z" />
<glyph unicode="o" horiz-adv-x="1198" d="M94 643q0 258 141.5 403.5t380.5 145.5q229 0 357.5 -141.5t128.5 -391.5q0 -246 -138.5 -393t-371.5 -147q-227 0 -362.5 143.5t-135.5 380.5zM262 649q0 -182 93.5 -286.5t248.5 -104.5q160 0 245 102.5t85 292.5q0 193 -85 296.5t-245 103.5q-158 0 -250 -107.5 t-92 -296.5z" />
<glyph unicode="p" horiz-adv-x="1202" d="M166 -326v1493h164v-180h4q121 205 354 205q199 0 309.5 -138.5t110.5 -367.5q0 -258 -125 -412.5t-342 -154.5q-198 0 -307 172h-4v-617h-164zM330 561q0 -127 83 -215t210 -88q147 0 232 113.5t85 316.5q0 172 -79 268.5t-214 96.5q-143 0 -230 -99t-87 -249v-144z" />
<glyph unicode="q" horiz-adv-x="1204" d="M94 631q0 256 128 408.5t343 152.5q211 0 305 -166h4v141h164v-1493h-164v645h-4q-105 -200 -348 -200h-2q-193 0 -309.5 138t-116.5 374zM262 635q0 -176 83 -276.5t214 -100.5q143 0 229 98t86 248v150q0 125 -82.5 212t-209.5 87q-147 0 -233.5 -109.5t-86.5 -308.5z " />
<glyph unicode="r" horiz-adv-x="710" d="M166 143v1024h164v-211h4q35 109 106.5 169.5t161.5 60.5q63 0 98 -15v-170q-43 33 -125 33q-104 0 -174.5 -99t-70.5 -269v-523h-164z" />
<glyph unicode="s" horiz-adv-x="813" d="M102 180v176q119 -98 267 -98q194 0 194 142q0 60 -43 99.5t-168 94.5q-147 63 -197.5 132t-50.5 169q0 129 100.5 213t260.5 84q123 0 219 -47v-166q-100 74 -231 74q-82 0 -131.5 -40t-49.5 -104q0 -61 35 -99t160 -91q152 -63 208 -133t56 -168q0 -131 -101.5 -215 t-273.5 -84q-145 0 -254 61z" />
<glyph unicode="t" horiz-adv-x="692" d="M41 1028v139h176v250l164 53v-303h258v-139h-258v-577q0 -102 35 -146.5t116 -44.5q61 0 107 33v-139q-57 -33 -154 -33q-268 0 -268 301v606h-176z" />
<glyph unicode="u" horiz-adv-x="1157" d="M143 555v612h164v-585q0 -324 248 -324q121 0 197.5 88t76.5 232v589h164v-1024h-164v162h-4q-100 -186 -315 -186q-367 0 -367 436z" />
<glyph unicode="v" horiz-adv-x="980" d="M12 1167h181l260 -743q29 -82 34 -143h5q10 76 32 139l273 747h172l-408 -1024h-162z" />
<glyph unicode="w" horiz-adv-x="1478" d="M23 1167h172l211 -770q10 -35 14 -92h8q2 45 18 94l236 768h149l213 -772q10 -37 15 -92h8q2 39 16 92l209 772h162l-307 -1024h-170l-211 734q-12 41 -16 94h-5q-2 -35 -20 -92l-229 -736h-164z" />
<glyph unicode="x" horiz-adv-x="937" d="M25 143l348 502l-334 522h190l199 -350q23 -39 43 -80h4l256 430h180l-344 -518l338 -506h-190l-201 332q-18 31 -45 78h-4q-4 -8 -47 -78l-205 -332h-188z" />
<glyph unicode="y" horiz-adv-x="989" d="M12 1167h183l276 -788q4 -14 21 -78h6q6 25 20 76l291 790h170l-471 -1187q-125 -317 -354 -318q-63 0 -107 12v148q53 -18 96 -19q125 0 187 150l82 192z" />
<glyph unicode="z" horiz-adv-x="925" d="M33 143v52l606 833h-549v139h791v-47l-607 -837h600v-140h-841z" />
<glyph unicode="{" horiz-adv-x="616" d="M90 639v117q156 10 156 215v293q0 309 307 313v-127q-160 -4 -160 -199v-293q0 -211 -149 -258v-4q150 -45 149 -256v-288q0 -111 36 -158t124 -49v-127q-307 4 -307 309v301q0 201 -156 211z" />
<glyph unicode="|" horiz-adv-x="489" d="M170 -338v2048h147v-2048h-147z" />
<glyph unicode="}" horiz-adv-x="616" d="M66 -55q88 2 123.5 49t35.5 158v288q0 211 150 256v4q-150 47 -150 258v293q0 195 -159 199v127q307 -4 307 -313v-293q0 -205 155 -215v-117q-156 -10 -155 -211v-301q0 -305 -307 -309v127z" />
<glyph unicode="~" horiz-adv-x="1400" d="M209 584q4 143 78.5 226t201.5 83q106 0 236 -88q131 -90 197 -90q61 0 98 49t39 129h135q-6 -147 -80 -228t-201 -81q-109 0 -264 108q-96 68 -160 68q-139 0 -145 -176h-135z" />
<glyph unicode="&#xa1;" horiz-adv-x="581" d="M178 1079q0 45 33 78t78 33t77.5 -33t32.5 -78t-32.5 -77.5t-77.5 -32.5t-78 32.5t-33 77.5zM205 -262l18 1030h135l19 -1030h-172z" />
<glyph unicode="&#xa2;" d="M182 793q0 219 115 366.5t307 183.5v213h125v-202q123 -2 221 -51v-173q-100 72 -221 78v-784q123 12 221 86v-158q-96 -59 -221 -69v-189h-125v191q-193 23 -307.5 162t-114.5 346zM350 809q0 -150 67.5 -249t186.5 -126v762q-119 -31 -186.5 -134.5t-67.5 -252.5z" />
<glyph unicode="&#xa3;" d="M104 143v136q217 70 218 313v186h-197v142h197v254q0 188 109.5 308t281.5 120q117 0 213 -41v-156q-100 57 -211 57q-229 0 -230 -307v-235h297v-142h-297v-155q0 -242 -192 -340h711v-140h-900z" />
<glyph unicode="&#xa4;" horiz-adv-x="1136" d="M98 498l138 133q-76 113 -76 237q0 129 76 238l-138 135l92 96l138 -137q111 78 239 78q129 0 238 -78l139 137l92 -96l-137 -135q78 -113 78 -238q0 -121 -78 -237l137 -133l-92 -97l-137 138q-104 -76 -240 -76q-135 0 -239 76l-138 -138zM293 870q0 -113 81 -193.5 t193 -80.5q113 0 195 81t82 193q0 113 -83 194t-194 81q-115 0 -194.5 -81t-79.5 -194z" />
<glyph unicode="&#xa5;" d="M68 1577h192l250 -514q29 -57 47 -111h4q12 43 49 117l252 508h180l-356 -655h285v-140h-334v-207h334v-139h-334v-293h-164v293h-344v139h344v207h-344v140h291z" />
<glyph unicode="&#xa6;" horiz-adv-x="489" d="M170 -338v852h147v-852h-147zM170 858v852h147v-852h-147z" />
<glyph unicode="&#xa7;" horiz-adv-x="917" d="M129 877q0 164 147 243q-106 84 -106 223q0 127 93 209t247 82q129 0 219 -43v-157q-100 61 -223 61q-168 0 -168 -143q0 -55 41 -100.5t203 -123.5q223 -106 223 -292q0 -171 -150 -277q90 -74 90 -186q0 -131 -99 -213t-255 -82q-131 0 -239 55v158q131 -74 249 -74 q84 0 130.5 40t46.5 99q0 53 -35 90t-181 113q-233 123 -233 318zM295 889q0 -72 56.5 -126t197.5 -118q88 68 88 172q0 72 -52.5 123.5t-189.5 108.5q-100 -51 -100 -160z" />
<glyph unicode="&#xa8;" horiz-adv-x="1034" d="M186 143v1434h727v-152h-559v-477h518v-151h-518v-502h592v-152h-760zM262 1808q0 41 28.5 70t69.5 29t71 -29t30 -70t-29 -69.5t-70 -28.5t-70.5 28.5t-29.5 69.5zM649 1808q0 41 28 70t68 29q41 0 71 -29t30 -70t-28.5 -69.5t-69.5 -28.5t-70 27.5t-29 70.5z" />
<glyph unicode="&#xa9;" horiz-adv-x="1822" d="M162 860q0 311 219 530.5t530 219.5t530.5 -219.5t219.5 -530.5t-219.5 -530t-530.5 -219t-530 219t-219 530zM250 860q0 -274 194.5 -467.5t466.5 -193.5q274 0 468 193.5t194 467.5t-194 468t-468 194q-272 0 -466.5 -193.5t-194.5 -468.5zM453 836q0 246 144 393 t376 147q133 0 235 -53v-149q-94 72 -254 71q-156 0 -257 -106.5t-101 -286.5q0 -174 103.5 -279.5t263.5 -105.5q147 0 249 78v-135q-113 -70 -268 -70q-209 0 -350 141.5t-141 354.5z" />
<glyph unicode="&#xaa;" horiz-adv-x="802" d="M82 1053q0 203 248 235l229 31q0 168 -151 168q-135 0 -254 -86v129q111 70 266 69q127 0 197.5 -71.5t70.5 -202.5v-465h-129v101h-4q-80 -119 -231 -119q-109 0 -175.5 59.5t-66.5 151.5zM211 1059q0 -51 39 -83t102 -32q82 0 144.5 61.5t62.5 145.5v68l-180 -25 q-168 -25 -168 -135z" />
<glyph unicode="&#xab;" horiz-adv-x="1034" d="M90 680l299 344h166l-303 -344l303 -336h-166zM477 680l299 344h170l-307 -344l305 -336h-168z" />
<glyph unicode="&#xac;" horiz-adv-x="1400" d="M231 827v134h940v-564h-131v430h-809z" />
<glyph unicode="&#xad;" horiz-adv-x="665" d="M86 670v202h489v-202h-489z" />
<glyph unicode="&#xae;" horiz-adv-x="1822" d="M162 860q0 311 219 530.5t530 219.5t530.5 -219.5t219.5 -530.5t-219.5 -530t-530.5 -219t-530 219t-219 530zM250 860q0 -274 194.5 -467.5t466.5 -193.5q274 0 468 193.5t194 467.5t-194 468t-468 194q-272 0 -466.5 -193.5t-194.5 -468.5zM618 391v955h269 q168 0 258 -70t90 -191q0 -98 -63.5 -166.5t-178.5 -93.5v-4q80 -16 158 -176l125 -254h-162l-104 230q-78 172 -170 172h-88v-402h-134zM752 905h143q197 0 197 164q0 88 -53.5 125t-168.5 37h-118v-326z" />
<glyph unicode="&#xaf;" horiz-adv-x="849" d="M0 1540v119h850v-119h-850z" />
<glyph unicode="&#xb0;" horiz-adv-x="770" d="M106 1319q0 115 80 194.5t195 79.5q117 0 197.5 -79.5t80.5 -194.5t-80.5 -197t-195.5 -82t-196 82t-81 197zM225 1319q0 -66 45 -114t111 -48t113 48t47 114t-46 112t-112 46t-112 -46.5t-46 -111.5z" />
<glyph unicode="&#xb1;" horiz-adv-x="1400" d="M231 143v133h940v-133h-940zM231 795v133h406v403h131v-403h403v-133h-403v-404h-131v404h-406z" />
<glyph unicode="&#xb2;" horiz-adv-x="749" d="M102 727v115l240 235q104 102 132 156.5t28 109.5q0 57 -38 94.5t-99 37.5q-119 0 -218 -103v150q84 76 236 75q119 0 187.5 -65.5t68.5 -173.5q0 -154 -205 -348l-164 -156v-4h385v-123h-553z" />
<glyph unicode="&#xb3;" horiz-adv-x="749" d="M127 760v141q102 -76 217 -76q80 0 126 38t46 102q0 141 -219 141h-84v117h80q197 0 196 135q0 119 -143 119q-94 0 -186 -70v139q88 51 213 51q113 0 180.5 -59t67.5 -156q0 -152 -146 -204v-4q176 -43 176 -203q0 -117 -85 -190.5t-226 -73.5q-137 0 -213 53z" />
<glyph unicode="&#xb4;" horiz-adv-x="577" d="M133 1362l223 328h166l-262 -328h-127z" />
<glyph unicode="&#xb5;" horiz-adv-x="1181" d="M166 -252v1419h164v-626q0 -127 68.5 -202t179.5 -75q121 0 196.5 86t75.5 232v585h166v-759q0 -187 33 -265h-170q-25 72 -25 168h-4q-84 -190 -279 -190q-168 0 -237 123h-4v-496h-164z" />
<glyph unicode="&#xb6;" horiz-adv-x="937" d="M84 1313q0 117 74.5 190.5t181.5 73.5h494v-102h-127v-1332h-107v1332h-158v-1332h-108v904q-109 0 -179.5 75.5t-70.5 190.5z" />
<glyph unicode="&#xb7;" horiz-adv-x="522" d="M102 874q0 66 47.5 112t112.5 46q66 0 111 -46t45 -112t-45 -112.5t-111 -46.5t-113 47t-47 112z" />
<glyph unicode="&#xb8;" horiz-adv-x="1069" d="M94 651q0 240 135.5 390.5t335.5 150.5q201 0 311.5 -130t110.5 -362v-86h-723q4 -172 92 -264t242 -92q172 0 317 113v-154q-135 -98 -356 -98q-217 0 -341 140t-124 392zM250 1460q0 43 28.5 71t69.5 28t71 -29t30 -70t-29 -69.5t-70 -28.5t-70.5 29.5t-29.5 68.5z M266 754h553q-2 141 -69.5 220t-186.5 79q-117 0 -197.5 -83t-99.5 -216zM637 1460q0 43 27.5 71t68.5 28t71 -29t30 -70t-29 -69.5t-70 -28.5t-69.5 27.5t-28.5 70.5z" />
<glyph unicode="&#xb9;" horiz-adv-x="718" d="M127 1378v125l324 96v-759h188v-113h-504v113h184v594z" />
<glyph unicode="&#xba;" horiz-adv-x="880" d="M78 1212q0 180 102.5 282.5t272.5 102.5q162 0 256 -99t94 -271q0 -178 -99.5 -282.5t-267.5 -104.5t-263 100t-95 272zM213 1217q0 -125 59.5 -195t169.5 -70q104 0 166 72t62 195q0 125 -61 196.5t-165 71.5q-106 0 -168.5 -72t-62.5 -198z" />
<glyph unicode="&#xbb;" horiz-adv-x="1034" d="M88 344l307 338l-307 342h170l299 -342l-299 -338h-170zM479 344l303 338l-303 342h166l301 -342l-301 -338h-166z" />
<glyph unicode="&#xbc;" horiz-adv-x="1855" d="M127 1378v125l324 96v-759h188v-113h-504v113h184v594zM391 143l858 1434h144l-858 -1434h-144zM1071 348v92l369 553h155v-536h111v-109h-111v-205h-131v205h-393zM1208 457h256v323q0 31 4 88h-4q-12 -33 -39 -73z" />
<glyph unicode="&#xbd;" horiz-adv-x="1904" d="M127 1378v125l324 96v-759h188v-113h-504v113h184v594zM391 143l858 1434h144l-858 -1434h-144zM1194 143v115l240 236q104 102 131.5 156.5t27.5 109.5q0 59 -37.5 95t-99.5 36q-119 0 -217 -103v150q84 76 236 76q119 0 187.5 -65.5t68.5 -174.5q0 -154 -205 -348 l-164 -156v-4h387v-123h-555z" />
<glyph unicode="&#xbe;" horiz-adv-x="1949" d="M127 760v141q102 -76 217 -76q80 0 126 38t46 102q0 141 -219 141h-84v117h80q197 0 196 135q0 119 -143 119q-94 0 -186 -70v139q88 51 213 51q113 0 180.5 -59t67.5 -156q0 -152 -146 -204v-4q176 -43 176 -203q0 -117 -85 -190.5t-226 -73.5q-137 0 -213 53zM461 143 l858 1434h143l-858 -1434h-143zM1135 348v92l368 553h156v-536h110v-109h-110v-205h-131v205h-393zM1272 457h256v323q0 31 4 88h-4q-12 -33 -39 -73z" />
<glyph unicode="&#xbf;" horiz-adv-x="917" d="M102 59q0 213 203 383q84 72 117 120t33 134v74h151v-78q0 -96 -38 -168.5t-132 -148.5q-178 -145 -178 -301q0 -98 65.5 -159.5t170.5 -61.5q166 0 290 133v-176q-156 -96 -315 -97q-168 0 -267.5 96.5t-99.5 249.5zM422 1079q0 45 32.5 78t77.5 33t79 -33t34 -78 t-34 -77.5t-79 -32.5t-77.5 32.5t-32.5 77.5z" />
<glyph unicode="&#xc0;" horiz-adv-x="1320" d="M20 143l549 1434h174l553 -1434h-186l-152 402h-608l-143 -402h-187zM406 696h497l-225 611q-10 31 -23 96h-4q-10 -61 -22 -96z" />
<glyph unicode="&#xc1;" horiz-adv-x="1169" d="M186 143v1434h766v-152h-598v-456h273q213 0 331.5 -103.5t118.5 -294.5q0 -199 -125 -313.5t-340 -114.5h-426zM354 295h236q150 0 230.5 70.5t80.5 195.5q0 256 -311 256h-236v-522z" />
<glyph unicode="&#xc2;" horiz-adv-x="1173" d="M186 143v1434h408q186 0 294.5 -91t108.5 -237q0 -123 -65.5 -212t-181.5 -128v-4q145 -16 232 -109.5t87 -240.5q0 -184 -132 -298t-333 -114h-418zM354 295h228q147 0 229 70.5t82 191.5q0 254 -346 254h-193v-516zM354 963h172q137 0 216 66.5t79 187.5 q0 209 -274 208h-193v-462z" />
<glyph unicode="&#xc3;" horiz-adv-x="964" d="M186 143v1434h744v-156h-576v-1278h-168z" />
<glyph unicode="&#xc4;" horiz-adv-x="1429" d="M23 -180v475h131q135 246 228 602t105 680h680v-1282h193v-475h-146v323h-1046v-323h-145zM336 295h663v1130h-364q-10 -236 -96 -564.5t-203 -565.5z" />
<glyph unicode="&#xc5;" horiz-adv-x="1034" d="M186 143v1434h727v-152h-559v-477h518v-151h-518v-502h592v-152h-760z" />
<glyph unicode="&#xc6;" horiz-adv-x="1773" d="M-20 143l655 744l-612 690h204l539 -621q23 -25 37 -49h4v670h160v-670h4q12 23 37 49l538 621h205l-612 -690l655 -744h-225l-561 656q-25 29 -37 51h-4v-707h-160v707h-4q-14 -25 -37 -51l-561 -656h-225z" />
<glyph unicode="&#xc7;" horiz-adv-x="1105" d="M94 203v182q168 -123 381 -123q156 0 247 75t91 202q0 276 -373 276h-149v139h137q160 0 247 69t87 196q0 109 -73 173t-200 64q-180 0 -350 -113v170q158 88 365 89q205 0 321.5 -97.5t116.5 -255.5q0 -279 -272 -352v-4q147 -16 234 -110.5t87 -233.5 q0 -197 -139 -313.5t-383 -116.5t-375 84z" />
<glyph unicode="&#xc8;" horiz-adv-x="1533" d="M186 143v1434h168v-1010q0 -162 -8 -211h4q23 43 56 97l720 1124h215v-1434h-167v1037q0 139 10 196h-6q-18 -49 -45 -90l-740 -1143h-207z" />
<glyph unicode="&#xc9;" horiz-adv-x="1533" d="M186 143v1434h168v-1010q0 -162 -8 -211h4q23 43 56 97l720 1124h215v-1434h-167v1037q0 139 10 196h-6q-18 -49 -45 -90l-740 -1143h-207zM436 1962h142q12 -156 192 -156q80 0 133 43t62 113h143q-10 -113 -105.5 -182.5t-234.5 -69.5q-141 0 -234.5 69.5t-97.5 182.5z " />
<glyph unicode="&#xca;" horiz-adv-x="1187" d="M186 143v1434h168v-674h4q14 23 37 49l537 625h209l-615 -688l658 -746h-234l-555 656q-31 37 -37 51h-4v-707h-168z" />
<glyph unicode="&#xcb;" horiz-adv-x="1376" d="M14 141v158q49 -29 113 -29q74 0 120 79t113.5 432.5t133.5 795.5h692v-1434h-168v1282h-383q-57 -395 -109.5 -678.5t-92.5 -392t-113.5 -171t-178.5 -62.5q-70 0 -127 20z" />
<glyph unicode="&#xcc;" horiz-adv-x="1837" d="M186 143v1434h222l440 -999q51 -115 65 -172h7q43 119 69 176l449 995h211v-1434h-168v963q0 113 14 278h-4q-25 -96 -43 -139l-490 -1102h-81l-490 1094q-20 49 -43 147h-4q8 -86 8 -280v-961h-162z" />
<glyph unicode="&#xcd;" horiz-adv-x="1452" d="M186 143v1434h168v-629h742v629h168v-1434h-168v654h-742v-654h-168z" />
<glyph unicode="&#xce;" horiz-adv-x="1542" d="M92 844q0 346 187.5 552t508.5 206q297 0 478.5 -200t181.5 -523q0 -350 -186.5 -555t-497.5 -205q-305 0 -488.5 201.5t-183.5 523.5zM268 858q0 -264 137.5 -426t358.5 -162q236 0 372 154t136 432q0 283 -132.5 438.5t-363.5 155.5q-225 0 -366.5 -163t-141.5 -429z " />
<glyph unicode="&#xcf;" horiz-adv-x="1458" d="M186 143v1434h1088v-1434h-170v1278h-750v-1278h-168z" />
<glyph unicode="&#xd0;" horiz-adv-x="1146" d="M186 143v1434h394q229 0 356 -111.5t127 -316.5q0 -203 -140.5 -333t-379.5 -130h-189v-543h-168zM354 838h176q174 0 265.5 79.5t91.5 223.5q0 285 -336 284h-197v-587z" />
<glyph unicode="&#xd1;" horiz-adv-x="1267" d="M92 834q0 344 207 556t524 212q205 0 338 -60v-178q-154 86 -340 86q-246 0 -399.5 -165t-153.5 -441q0 -262 143.5 -418t376.5 -156q215 0 373 97v-164q-158 -84 -395 -84q-305 0 -489.5 197.5t-184.5 517.5z" />
<glyph unicode="&#xd2;" horiz-adv-x="1071" d="M41 1425v152h995v-152h-413v-1282h-168v1282h-414z" />
<glyph unicode="&#xd3;" horiz-adv-x="1150" d="M49 1577h191l344 -766l37 -92h2q14 29 41 88l319 770h180l-446 -1002q-127 -287 -219 -371.5t-217 -84.5q-104 0 -179 31v169q84 -51 166 -51q72 0 131.5 54.5t135.5 228.5z" />
<glyph unicode="&#xd4;" horiz-adv-x="1486" d="M92 897q0 227 155.5 384t399.5 157h25v180h155v-180h25q246 0 400.5 -154t154.5 -387q0 -236 -156.5 -400.5t-396.5 -164.5h-27v-189h-155v189h-27q-240 0 -396.5 162.5t-156.5 402.5zM268 895q0 -190 102.5 -303t274.5 -113h27v817h-25q-170 0 -274.5 -111.5 t-104.5 -289.5zM827 479h27q170 0 273.5 114t103.5 302q0 180 -103.5 290.5t-275.5 110.5h-25v-817z" />
<glyph unicode="&#xd5;" horiz-adv-x="1206" d="M25 143l479 721l-443 713h207l293 -504q29 -49 51 -100h4q31 68 56 104l305 500h192l-450 -711l457 -723h-205l-330 549q-14 25 -33 72h-4q-10 -23 -35 -72l-340 -549h-204z" />
<glyph unicode="&#xd6;" horiz-adv-x="1519" d="M186 143v1434h168v-1282h742v1282h168v-1282h192v-475h-145v323h-1125z" />
<glyph unicode="&#xd7;" horiz-adv-x="1353" d="M166 1038v539h168v-530q0 -231 246 -232q178 0 405 111v651h168v-1434h-168v645q-229 -121 -426 -120q-188 0 -290.5 97t-102.5 273z" />
<glyph unicode="&#xd8;" horiz-adv-x="1943" d="M186 143v1434h168v-1282h531v1282h168v-1282h530v1282h168v-1434h-1565z" />
<glyph unicode="&#xd9;" horiz-adv-x="2004" d="M186 143v1434h168v-1282h531v1282h168v-1282h530v1282h168v-1282h193v-475h-146v323h-1612z" />
<glyph unicode="&#xda;" horiz-adv-x="1443" d="M41 1423v154h582v-608h272q213 0 332 -102.5t119 -295.5q0 -199 -125 -313.5t-340 -114.5h-426v1280h-414zM623 295h235q150 0 230.5 70.5t80.5 195.5q0 256 -311 256h-235v-522z" />
<glyph unicode="&#xdb;" horiz-adv-x="1603" d="M186 143v1434h168v-608h273q213 0 331.5 -103.5t118.5 -294.5q0 -199 -125 -313.5t-340 -114.5h-426zM354 295h236q150 0 230.5 70.5t80.5 195.5q0 256 -311 256h-236v-522zM1245 143v1434h168v-1434h-168z" />
<glyph unicode="&#xdc;" horiz-adv-x="1179" d="M186 143v1434h168v-608h273q213 0 331.5 -103.5t118.5 -294.5q0 -199 -125 -313.5t-340 -114.5h-426zM354 295h236q150 0 230.5 70.5t80.5 195.5q0 256 -311 256h-236v-522z" />
<glyph unicode="&#xdd;" horiz-adv-x="1261" d="M102 203v164q156 -96 381 -97q215 0 351.5 135.5t152.5 376.5h-635v152h633q-27 244 -162 380t-352 136q-203 0 -369 -86v176q154 61 369 62q309 0 501.5 -208t192.5 -554q0 -319 -185 -520t-488 -201q-232 0 -390 84z" />
<glyph unicode="&#xde;" horiz-adv-x="2084" d="M186 143v1434h168v-612h340q29 299 204 468t456 169q289 0 462 -198t173 -525q0 -354 -177.5 -557t-482.5 -203q-287 0 -460 190.5t-181 503.5h-334v-670h-168zM864 864q0 -283 122 -438.5t343 -155.5q229 0 356 152.5t127 433.5q0 287 -121.5 440.5t-342.5 153.5 q-227 0 -355.5 -156.5t-128.5 -429.5z" />
<glyph unicode="&#xdf;" horiz-adv-x="1179" d="M29 143l241 480q70 139 166 174v4q-141 31 -228 130t-87 243q0 174 122 288.5t330 114.5h416v-1434h-168v611h-186q-63 0 -108.5 -37t-94.5 -142l-203 -432h-200zM299 1171q0 -123 81 -194.5t214 -71.5h227v520h-233q-139 0 -214 -67.5t-75 -186.5z" />
<glyph unicode="&#xe0;" horiz-adv-x="1040" d="M88 416q0 287 338 334l307 43q0 260 -211 260q-184 0 -334 -125v168q152 96 349 96q360 0 360 -383v-666h-164v160h-4q-106 -184 -315 -184q-154 0 -240 81t-86 216zM256 428q0 -76 53 -123t144 -47q121 0 200.5 85t79.5 216v103l-248 -35q-113 -14 -171 -55.5 t-58 -143.5z" />
<glyph unicode="&#xe1;" horiz-adv-x="1185" d="M119 766q0 242 46 409.5t128 252.5t181 118t341 76q96 20 143 49v-153q-41 -31 -133 -45q-225 -35 -314 -66t-146.5 -134.5t-73.5 -301.5h4q121 174 342 174q203 0 326.5 -138.5t123.5 -367.5q0 -236 -129 -378t-348 -142q-236 0 -363.5 168t-127.5 479zM289 668 q2 -80 24.5 -157t65.5 -136.5t101.5 -88t133.5 -28.5q137 0 221.5 102.5t84.5 262.5q0 176 -86 279.5t-234 103.5q-207 0 -311 -197v-141z" />
<glyph unicode="&#xe2;" horiz-adv-x="1083" d="M166 143v1024h446q152 0 239 -66.5t87 -182.5q0 -199 -197 -242q236 -31 236 -238q0 -125 -96.5 -210t-239.5 -85h-475zM330 283h284q199 0 199 161q0 156 -223 156h-260v-317zM330 739h245q199 0 199 154q0 135 -178 135h-266v-289z" />
<glyph unicode="&#xe3;" horiz-adv-x="782" d="M166 143v1024h569v-139h-405v-885h-164z" />
<glyph unicode="&#xe4;" horiz-adv-x="1118" d="M16 -125v408h90q262 379 267 884h532v-884h152v-408h-139v268h-762v-268h-140zM281 283h460v745h-227q-29 -416 -233 -745z" />
<glyph unicode="&#xe5;" horiz-adv-x="1069" d="M94 651q0 240 135.5 390.5t335.5 150.5q201 0 311.5 -130t110.5 -362v-86h-723q4 -172 92 -264t242 -92q172 0 317 113v-154q-135 -98 -356 -98q-217 0 -341 140t-124 392zM266 754h553q-2 141 -69.5 220t-186.5 79q-117 0 -197.5 -83t-99.5 -216z" />
<glyph unicode="&#xe6;" horiz-adv-x="1527" d="M2 143l508 529l-477 495h209l438 -479h4v479h156v-479h4l438 479h211l-479 -495l510 -529h-221l-459 506h-4v-506h-156v506h-4l-459 -506h-219z" />
<glyph unicode="&#xe7;" horiz-adv-x="929" d="M86 172v162q133 -76 313 -76q270 0 271 172q0 170 -297 170h-101v139h97q260 0 260 162q0 68 -59.5 110t-163.5 42q-150 0 -300 -76v153q170 61 312 62q375 0 375 -274q0 -190 -211 -240v-4q113 -10 182.5 -78t69.5 -172q0 -139 -113 -222t-311 -83q-211 0 -324 53z" />
<glyph unicode="&#xe8;" horiz-adv-x="1189" d="M166 143v1024h149v-807q12 29 54 99l485 708h170v-1024h-147v818q-23 -43 -68 -121l-473 -697h-170z" />
<glyph unicode="&#xe9;" horiz-adv-x="1189" d="M166 143v1024h149v-807q12 29 54 99l485 708h170v-1024h-147v818q-23 -43 -68 -121l-473 -697h-170zM270 1614h142q12 -156 192 -156q80 0 133.5 43t61.5 113h143q-10 -113 -105.5 -182.5t-234.5 -69.5q-141 0 -234.5 69.5t-97.5 182.5z" />
<glyph unicode="&#xea;" horiz-adv-x="1017" d="M166 143v1024h164v-469h4l430 469h215l-475 -493l512 -531h-230l-452 492h-4v-492h-164z" />
<glyph unicode="&#xeb;" horiz-adv-x="1079" d="M14 143v142q35 -18 76 -19q219 0 283 901h538v-1024h-163v885h-238q-41 -498 -140.5 -698.5t-267.5 -200.5q-51 0 -88 14z" />
<glyph unicode="&#xec;" horiz-adv-x="1437" d="M166 143v1024h209l270 -667q29 -74 74 -203l74 199l262 671h217v-1024h-162v844q-23 -63 -68 -188l-256 -656h-147l-264 656q-20 53 -68 188v-844h-141z" />
<glyph unicode="&#xed;" horiz-adv-x="1181" d="M166 143v1024h164v-419h522v419h164v-1024h-164v465h-522v-465h-164z" />
<glyph unicode="&#xee;" horiz-adv-x="1198" d="M94 643q0 258 141.5 403.5t380.5 145.5q229 0 357.5 -141.5t128.5 -391.5q0 -246 -138.5 -393t-371.5 -147q-227 0 -362.5 143.5t-135.5 380.5zM262 649q0 -182 93.5 -286.5t248.5 -104.5q160 0 245 102.5t85 292.5q0 193 -85 296.5t-245 103.5q-158 0 -250 -107.5 t-92 -296.5z" />
<glyph unicode="&#xef;" horiz-adv-x="1181" d="M166 143v1024h850v-1024h-164v885h-522v-885h-164z" />
<glyph unicode="&#xf0;" horiz-adv-x="1202" d="M166 -326v1493h164v-180h4q121 205 354 205q199 0 309.5 -138.5t110.5 -367.5q0 -258 -125 -412.5t-342 -154.5q-198 0 -307 172h-4v-617h-164zM330 561q0 -127 83 -215t210 -88q147 0 232 113.5t85 316.5q0 172 -79 268.5t-214 96.5q-143 0 -230 -99t-87 -249v-144z" />
<glyph unicode="&#xf1;" horiz-adv-x="944" d="M94 631q0 254 144.5 407.5t388.5 153.5q135 0 237 -51v-168q-115 80 -243 80q-158 0 -258.5 -113t-100.5 -295q0 -180 94.5 -283.5t253.5 -103.5q133 0 252 88v-156q-119 -72 -280 -71q-219 0 -353.5 142t-134.5 370z" />
<glyph unicode="&#xf2;" horiz-adv-x="839" d="M29 1028v139h778v-139h-307v-885h-164v885h-307z" />
<glyph unicode="&#xf3;" horiz-adv-x="989" d="M12 1167h183l276 -788q4 -14 21 -78h6q6 25 20 76l291 790h170l-471 -1187q-125 -317 -354 -318q-63 0 -107 12v148q53 -18 96 -19q125 0 187 150l82 192z" />
<glyph unicode="&#xf4;" horiz-adv-x="1404" d="M94 643q0 250 139.5 399.5t368.5 149.5h25v410h147v-410h23q229 0 369.5 -148.5t140.5 -400.5q0 -233 -137.5 -378.5t-360.5 -145.5h-35v-457h-147v457h-33q-223 0 -361.5 145.5t-138.5 378.5zM262 649q0 -178 93.5 -284.5t250.5 -106.5h21v795h-25q-154 0 -247 -107.5 t-93 -296.5zM774 258h23q156 0 249 105.5t93 285.5q0 190 -92.5 297t-245.5 107h-27v-795z" />
<glyph unicode="&#xf5;" horiz-adv-x="937" d="M25 143l348 502l-334 522h190l199 -350q23 -39 43 -80h4l256 430h180l-344 -518l338 -506h-190l-201 332q-18 31 -45 78h-4q-4 -8 -47 -78l-205 -332h-188z" />
<glyph unicode="&#xf6;" horiz-adv-x="1228" d="M166 143v1024h164v-884h522v884h164v-884h151v-408h-141v268h-860z" />
<glyph unicode="&#xf7;" horiz-adv-x="1155" d="M152 821v346h163v-338q0 -225 195 -225q147 0 317 86v477h164v-1024h-164v412q-180 -98 -331 -98q-344 0 -344 364z" />
<glyph unicode="&#xf8;" horiz-adv-x="1636" d="M166 143v1024h164v-884h407v884h164v-884h408v884h164v-1024h-1307z" />
<glyph unicode="&#xf9;" horiz-adv-x="1687" d="M166 143v1024h164v-884h407v884h164v-884h408v884h164v-884h153v-408h-143v268h-1317z" />
<glyph unicode="&#xfa;" horiz-adv-x="1208" d="M29 1028v139h475v-393h276q156 0 249 -81t93 -230q0 -147 -93 -233.5t-234 -86.5h-455v885h-311zM504 283h246q205 0 204 180q0 170 -206 170h-244v-350z" />
<glyph unicode="&#xfb;" horiz-adv-x="1452" d="M166 143v1024h164v-393h276q158 0 250 -82t92 -229t-93 -233.5t-234 -86.5h-455zM330 283h245q205 0 205 180q0 170 -207 170h-243v-350zM1124 143v1024h162v-1024h-162z" />
<glyph unicode="&#xfc;" horiz-adv-x="1030" d="M166 143v1024h164v-393h276q158 0 250 -82t92 -229t-93 -233.5t-234 -86.5h-455zM330 283h245q205 0 205 180q0 170 -207 170h-243v-350z" />
<glyph unicode="&#xfd;" horiz-adv-x="944" d="M88 188v156q117 -86 266 -86q145 0 234.5 89t97.5 243h-436v139h436q-12 152 -101 238t-237 86q-143 0 -248 -78v162q106 55 250 55q244 0 375 -142.5t131 -402.5q0 -242 -134 -385t-362 -143q-157 -1 -272 69z" />
<glyph unicode="&#xfe;" horiz-adv-x="1662" d="M166 143v1024h164v-419h293q25 209 153.5 326.5t329.5 117.5q219 0 340 -138.5t121 -394.5q0 -250 -129 -395t-357 -145q-213 0 -331.5 129t-128.5 360h-291v-465h-164zM786 653q0 -395 310 -395q303 0 303 395q0 400 -307 400q-305 0 -306 -400z" />
<glyph unicode="&#xff;" horiz-adv-x="1028" d="M61 143l172 316q61 111 146 145q-121 16 -183.5 88t-62.5 180q0 135 98.5 215t276.5 80h358v-1024h-164v424h-137q-98 0 -180 -159l-133 -265h-191zM301 870q0 -166 201 -165h200v323h-194q-207 0 -207 -158z" />
<glyph unicode="&#x2c6;" horiz-adv-x="759" d="M90 1362l215 332h133l215 -332h-121l-163 229l-166 -229h-113z" />
<glyph unicode="&#x2dc;" horiz-adv-x="688" d="M35 1346q0 106 48 170.5t134 64.5q66 0 150 -51q74 -45 127 -45q84 0 84 117h98q0 -104 -48 -171t-130 -67q-72 0 -162 51q-78 43 -119 43q-88 0 -88 -112h-94z" />
<glyph unicode="&#x2000;" horiz-adv-x="981" />
<glyph unicode="&#x2001;" horiz-adv-x="1962" />
<glyph unicode="&#x2002;" horiz-adv-x="981" />
<glyph unicode="&#x2003;" horiz-adv-x="1962" />
<glyph unicode="&#x2004;" horiz-adv-x="654" />
<glyph unicode="&#x2005;" horiz-adv-x="490" />
<glyph unicode="&#x2006;" horiz-adv-x="327" />
<glyph unicode="&#x2007;" horiz-adv-x="327" />
<glyph unicode="&#x2008;" horiz-adv-x="245" />
<glyph unicode="&#x2009;" horiz-adv-x="392" />
<glyph unicode="&#x200a;" horiz-adv-x="109" />
<glyph unicode="&#x2010;" horiz-adv-x="817" d="M143 649v129h547v-129h-547z" />
<glyph unicode="&#x2011;" horiz-adv-x="817" d="M143 649v129h547v-129h-547z" />
<glyph unicode="&#x2012;" horiz-adv-x="817" d="M143 649v129h547v-129h-547z" />
<glyph unicode="&#x2013;" horiz-adv-x="1024" d="M0 649v129h1024v-129h-1024z" />
<glyph unicode="&#x2014;" horiz-adv-x="2048" d="M0 649v129h2048v-129h-2048z" />
<glyph unicode="&#x2018;" horiz-adv-x="468" d="M104 1155l140 447h118l-108 -447h-150z" />
<glyph unicode="&#x2019;" horiz-adv-x="468" d="M109 1155l110 447h148l-142 -447h-116z" />
<glyph unicode="&#x201a;" horiz-adv-x="468" d="M86 -84l111 444h147l-141 -444h-117z" />
<glyph unicode="&#x201c;" horiz-adv-x="770" d="M104 1155l140 447h118l-108 -447h-150zM408 1155l141 447h117l-111 -447h-147z" />
<glyph unicode="&#x201d;" horiz-adv-x="770" d="M109 1155l110 447h148l-142 -447h-116zM412 1155l108 447h150l-140 -447h-118z" />
<glyph unicode="&#x201e;" horiz-adv-x="770" d="M86 -84l111 444h147l-141 -444h-117zM389 -84l109 444h149l-139 -444h-119z" />
<glyph unicode="&#x2022;" horiz-adv-x="831" d="M164 801q0 104 74.5 179t179.5 75q104 0 177 -75t73 -179q0 -102 -73 -176t-177 -74t-179 73.5t-75 176.5z" />
<glyph unicode="&#x2026;" horiz-adv-x="1499" d="M139 236q0 45 32 78.5t77 33.5t77.5 -33.5t32.5 -78.5q0 -47 -31.5 -79t-78.5 -32q-45 0 -77 31.5t-32 79.5zM639 236q0 45 33 78.5t78 33.5t77.5 -33.5t32.5 -78.5q0 -47 -32.5 -79t-77.5 -32t-78 31.5t-33 79.5zM1143 236q0 45 31.5 78.5t76.5 33.5t78 -33.5t33 -78.5 q0 -47 -33 -79t-78 -32t-76.5 31.5t-31.5 79.5z" />
<glyph unicode="&#x202f;" horiz-adv-x="392" />
<glyph unicode="&#x2039;" horiz-adv-x="645" d="M90 680l299 344h168l-305 -344l303 -336h-166z" />
<glyph unicode="&#x203a;" horiz-adv-x="645" d="M90 344l303 338l-303 342h166l301 -342l-301 -338h-166z" />
<glyph unicode="&#x205f;" horiz-adv-x="490" />
<glyph unicode="&#x20ac;" d="M100 625v141h109q-4 31 -4 76q0 49 6 108h-111v140h131q51 242 192.5 377t342.5 135q137 0 246 -56v-164q-115 80 -256 80q-125 0 -222.5 -101t-136.5 -271h498v-140h-520q-8 -98 0 -184h520v-141h-506q74 -365 350 -365q131 0 273 86v-153q-133 -74 -283 -74 q-426 0 -508 506h-121z" />
<glyph unicode="&#x2122;" horiz-adv-x="1581" d="M76 1479v98h526v-98h-209v-564h-110v564h-207zM686 915v662h127l225 -496h4l228 496h127v-662h-109v478h-4l-219 -478h-59l-213 478h-5v-478h-102z" />
<glyph unicode="&#x25fc;" horiz-adv-x="1167" d="M0 0v1167h1167v-1167h-1167z" />
</font>
</defs>
</svg>
