<?xml version="1.0" encoding="iso-8859-1"?>
<!-- Generator: Adobe Illustrator 19.0.0, SVG Export Plug-In . SVG Version: 6.00 Build 0)  -->
<svg version="1.1" id="Layer_1" xmlns="http://www.w3.org/2000/svg" xmlns:xlink="http://www.w3.org/1999/xlink" x="0px" y="0px"
	 viewBox="0 0 512 512" style="enable-background:new 0 0 512 512;" xml:space="preserve">
<g>
	<path style="fill:#E4AD40;" d="M98.363,147.824c35.963,0,65.216-29.254,65.216-65.216s-29.254-65.216-65.216-65.216
		S33.147,46.645,33.147,82.607S62.401,147.824,98.363,147.824z M128.797,34.782c14.385,0,26.087,11.702,26.087,26.087
		s-11.702,26.087-26.087,26.087s-26.087-11.702-26.087-26.087S114.412,34.782,128.797,34.782z"/>
	<circle style="fill:#E4AD40;" cx="128.797" cy="60.869" r="8.696"/>
</g>
<path style="fill:#C59981;" d="M374.429,275.573l-123.162,1.491l-49.747,58.987c1.508,0.731,2.689,1.832,3.53,3.182l86.05,31.498
	l83.083-7.371c13.689-22.223,27.267-48.42,28.244-56.776c-7.173-7.081-20.073-22.564-27.14-31.184
	C374.994,275.434,374.725,275.57,374.429,275.573z"/>
<g>
	<path style="fill:#314E55;" d="M509.961,344.068c-2.645-4.008-8.046-5.104-12.05-2.454l-39.431,26.061l-38.99-54.941
		c-0.195-0.275-0.488-0.42-0.708-0.665c2.634-11.604-0.872-14.845-2.977-16.751c-5.27-4.772-18.346-20.333-26.686-30.485
		l41.93-39.752c9.433,0.457,30.93,2.465,39.404,3.305c0.289,0.025,0.577,0.042,0.862,0.042c4.42,0,8.203-3.354,8.645-7.838
		c0.471-4.781-3.019-9.035-7.8-9.511c-3.49-0.348-33.419-3.278-43.236-3.482c-5.537-2.658-22.911-20.329-36.162-35.725
		c-3.133-3.626-8.615-4.042-12.262-0.917c-3.639,3.133-4.051,8.619-0.917,12.262c15.995,18.586,26.641,28.872,33.854,34.596
		l-42.626,40.411L253.21,259.65c-2.17-1.41-4.706-1.719-7.078-1.025l-93.405-51.112c-2.352-1.299-5.15-1.435-7.596-0.365
		l-90.106,38.552L16.444,231.9c-4.513-1.613-9.498,0.739-11.116,5.256c-1.618,4.526,0.735,9.502,5.256,11.116l41.796,14.945
		c2.08,0.747,4.335,0.671,6.352-0.195l89.354-38.23l85.196,46.62l-49.018,58.128L118.2,305.303
		c-2.513-0.926-5.324-0.628-7.596,0.781L43.553,347.94L14.991,323.17c-3.635-3.142-9.116-2.743-12.266,0.875
		c-3.146,3.626-2.756,9.12,0.87,12.27l33.415,28.974c0.96,0.83,2.079,1.341,3.244,1.686l-13.332,56.491
		c-1.104,4.67,1.792,9.358,6.466,10.462c0.671,0.153,1.342,0.229,2.004,0.229c3.94,0,7.511-2.692,8.454-6.7l15.752-66.745
		c0.187-0.79,0.107-1.56,0.076-2.334l56.53-35.285l62.304,22.853c1.012,1.588,2.334,2.951,4.148,3.615l91.456,33.474l-44.459,32.022
		c-2.692,1.936-4.046,5.239-3.49,8.509c0.552,3.269,2.917,5.936,6.097,6.887l84.721,25.167l-8.695,46.07
		c-0.892,4.721,2.212,9.264,6.929,10.156c0.548,0.102,1.087,0.153,1.622,0.153c4.097,0,7.749-2.913,8.534-7.082l9.01-47.743
		l90.394,2.032c0.068,0,0.132,0,0.2,0c4.709,0,8.581-3.762,8.687-8.5c0.11-4.798-3.694-8.78-8.496-8.891l-101.226-2.276
		l-69.755-20.72l43.32-31.199l82.536-7.319c2.705-0.238,5.146-1.732,6.589-4.034c12.089-19.209,19.909-33.588,24.967-44.603
		l37.571,52.934c1.69,2.378,4.373,3.66,7.099,3.66c1.647,0,3.312-0.467,4.785-1.444l46.445-30.698
		C511.507,353.468,512.606,348.076,509.961,344.068z M374.183,363.361l-83.083,7.371l-86.05-31.498
		c-0.841-1.35-2.022-2.45-3.53-3.182l49.747-58.987l123.162-1.491c0.296-0.004,0.565-0.139,0.857-0.172
		c7.067,8.621,19.967,24.103,27.14,31.184C401.45,314.941,387.871,341.138,374.183,363.361z"/>
	<path style="fill:#314E55;" d="M98.363,165.215c45.55,0,82.608-37.058,82.608-82.607S143.913,0,98.363,0
		S15.756,37.058,15.756,82.607S52.813,165.215,98.363,165.215z M98.363,17.391c35.963,0,65.216,29.254,65.216,65.216
		s-29.254,65.216-65.216,65.216S33.147,118.57,33.147,82.607S62.401,17.391,98.363,17.391z"/>
	<path style="fill:#314E55;" d="M128.797,86.955c14.385,0,26.087-11.702,26.087-26.087s-11.702-26.087-26.087-26.087
		s-26.087,11.702-26.087,26.087S114.412,86.955,128.797,86.955z M128.797,52.173c4.794,0,8.696,3.898,8.696,8.696
		s-3.902,8.696-8.696,8.696c-4.794,0-8.696-3.898-8.696-8.696S124.004,52.173,128.797,52.173z"/>
</g>
<g>
</g>
<g>
</g>
<g>
</g>
<g>
</g>
<g>
</g>
<g>
</g>
<g>
</g>
<g>
</g>
<g>
</g>
<g>
</g>
<g>
</g>
<g>
</g>
<g>
</g>
<g>
</g>
<g>
</g>
</svg>
